<svg xmlns="http://www.w3.org/2000/svg" version="1.1" width="560" height="200" preserveAspectRatio="none"
     viewBox="0 0 560 200">
  <g mask="url(&quot;#SvgjsMask1078&quot;)" fill="none">
    <rect width="560" height="200" x="0" y="0" fill="rgba(2, 55, 108, 1)"></rect>
    <path d="M0,161.242C29.296,154.659,43.937,123.009,65.882,102.514C83.399,86.154,105.45,74.499,115.949,52.952C126.587,31.12,124.598,6.377,124.561,-17.909C124.518,-46.091,132.9,-77.932,115.715,-100.268C98.484,-122.666,65.474,-122.695,38.214,-130.144C11.498,-137.445,-15.877,-152.293,-42.105,-143.395C-68.154,-134.557,-78.193,-104.11,-97.181,-84.208C-117.399,-63.017,-151.461,-51.315,-157.333,-22.621C-163.205,6.071,-137.854,30.765,-126.211,57.638C-114.29,85.153,-111.301,118.096,-88.123,137.122C-64.097,156.844,-30.328,168.057,0,161.242" fill="#022f5c"></path>
    <path d="M560 404.947C598.242 407.183 633.615 385.15999999999997 664.023 361.86199999999997 692.759 339.845 712.129 309.269 727.598 276.54 743.241 243.44299999999998 763.953 207.291 753.687 172.152 743.537 137.40800000000002 697.554 128.577 675.898 99.574 651.602 67.035 659.01 6.824999999999989 620.537-6.171999999999997 582.58-18.995000000000005 551.822 30.477000000000004 514.503 45.05099999999999 481.58299999999997 57.90700000000001 441.254 50.751000000000005 414.794 74.178 387.251 98.564 378.188 136.793 370.301 172.725 361.91200000000003 210.947 349.724 253.076 367.925 287.718 385.99 322.102 430.35900000000004 329.902 463.51300000000003 350.137 495.73900000000003 369.805 522.31 402.743 560 404.947" fill="#023f7c"></path>
  </g>
  <defs>
    <mask id="SvgjsMask1078">
      <rect width="560" height="200" fill="#ffffff"></rect>
    </mask>
  </defs>
</svg>
